<svg xmlns="http://www.w3.org/2000/svg" viewBox="550 420 805 250">
  <path d="M841.62 514.91V433.7h33.9c4.12 0 8.08.45 11.86 1.35s7.13 2.39 10.06 4.45c2.92 2.06 5.26 4.79 7.03 8.19q2.64 5.1 2.64 12.57c0 7.47-.92 9.46-2.77 12.89-1.85 3.44-4.25 6.23-7.22 8.38s-6.34 3.67-10.12 4.58c-3.78.9-7.61 1.35-11.47 1.35h-22.3v27.46h-11.6Zm11.6-36.22h22.04c2.58 0 5.09-.3 7.54-.9q3.675-.9 6.45-3.09c1.85-1.46 3.35-3.37 4.51-5.74q1.74-3.54 1.74-8.7c0-3.61-.62-6.51-1.87-8.7s-2.84-3.87-4.77-5.03-4.11-1.91-6.51-2.26a51 51 0 0 0-7.09-.52h-22.04zm69.62-25.27c2.66 0 4.83.82 6.51 2.45s2.47 3.83 2.38 6.57v.65c1.81-2.75 4.1-5.16 6.9-7.22 2.79-2.06 5.61-3.09 8.44-3.09h13.66v9.93h-13.92q-7.215 0-10.89 5.61c-2.45 3.74-3.67 8.7-3.67 14.89v31.71h-11.09v-51.69h-5.28v-9.8h6.96Zm42.28 30.68c0-4.64.82-8.92 2.45-12.83s3.87-7.3 6.7-10.18c2.84-2.88 6.21-5.11 10.12-6.7s8.14-2.38 12.7-2.38 8.79.82 12.7 2.45 7.28 3.87 10.12 6.7 5.05 6.21 6.64 10.12 2.39 8.19 2.39 12.83-.8 8.92-2.39 12.83-3.8 7.28-6.64 10.12-6.21 5.07-10.12 6.7-8.14 2.45-12.7 2.45-8.79-.82-12.7-2.45-7.28-3.87-10.12-6.7c-2.84-2.84-5.07-6.21-6.7-10.12s-2.45-8.19-2.45-12.83Zm31.97 21.66c3.18 0 6.04-.56 8.57-1.68s4.71-2.64 6.51-4.58c1.81-1.93 3.18-4.21 4.13-6.83.94-2.62 1.42-5.48 1.42-8.57s-.47-5.95-1.42-8.57-2.32-4.9-4.13-6.83c-1.8-1.93-3.98-3.46-6.51-4.58-2.54-1.12-5.39-1.68-8.57-1.68s-5.91.56-8.44 1.68c-2.54 1.12-4.71 2.64-6.51 4.58-1.81 1.93-3.2 4.21-4.19 6.83s-1.48 5.48-1.48 8.57.49 5.84 1.48 8.51c.99 2.66 2.39 4.96 4.19 6.9 1.8 1.93 3.97 3.46 6.51 4.58 2.53 1.12 5.35 1.68 8.44 1.68Zm46.15 36.22v-88.56h10.7v14.18c1.03-2.58 2.43-4.83 4.19-6.77 1.76-1.93 3.72-3.54 5.87-4.83s4.42-2.26 6.83-2.9c2.41-.65 4.77-.97 7.09-.97 4.38 0 8.38.82 11.99 2.45s6.66 3.87 9.15 6.7c2.49 2.84 4.42 6.21 5.8 10.12 1.37 3.91 2.06 8.14 2.06 12.7s-.75 8.79-2.26 12.7c-1.5 3.91-3.59 7.31-6.25 10.18-2.67 2.88-5.85 5.14-9.54 6.77-3.7 1.63-7.74 2.45-12.12 2.45-2.32 0-4.62-.39-6.9-1.16a26.7 26.7 0 0 1-6.38-3.16 27.3 27.3 0 0 1-5.29-4.64 28 28 0 0 1-3.87-5.61v40.35h-11.09Zm31.71-35.58c3.09 0 5.93-.6 8.51-1.81q3.87-1.8 6.57-4.83c1.8-2.02 3.2-4.38 4.19-7.09s1.48-5.56 1.48-8.57-.5-5.97-1.48-8.64c-.99-2.66-2.39-5-4.19-7.03q-2.715-3.03-6.51-4.77c-2.54-1.16-5.35-1.74-8.44-1.74s-6.06.6-8.64 1.81c-2.58 1.2-4.77 2.82-6.57 4.83-1.81 2.02-3.2 4.36-4.19 7.03-.99 2.66-1.48 5.5-1.48 8.51s.49 5.86 1.48 8.57 2.39 5.07 4.19 7.09q2.7 3.03 6.51 4.83c2.53 1.21 5.39 1.81 8.57 1.81m54.01-20.11c.26 2.75.88 5.31 1.87 7.67a18.6 18.6 0 0 0 4.19 6.19c1.8 1.76 3.97 3.14 6.51 4.12 2.53.99 5.39 1.48 8.57 1.48 5.24 0 9.5-.97 12.76-2.9s5.89-4.45 7.86-7.54l9.41 4.77c-2.92 4.9-6.92 8.81-11.99 11.73s-11.22 4.38-18.43 4.38c-4.81 0-9.2-.82-13.15-2.45s-7.35-3.87-10.18-6.7-5.03-6.21-6.57-10.12c-1.55-3.91-2.32-8.19-2.32-12.83s.82-8.92 2.45-12.83 3.87-7.3 6.7-10.18c2.84-2.88 6.21-5.11 10.12-6.7s8.19-2.38 12.83-2.38 8.79.82 12.7 2.45 7.28 3.87 10.12 6.7c2.84 2.84 5.05 6.21 6.64 10.12s2.39 8.19 2.39 12.83v2.19h-52.47Zm40.35-8.89c-1.2-4.38-3.5-7.97-6.9-10.76s-7.67-4.19-12.83-4.19-9.46 1.4-12.89 4.19c-3.44 2.79-5.76 6.38-6.96 10.76zm27.72-23.98c2.66 0 4.83.82 6.51 2.45s2.47 3.83 2.38 6.57v.65c1.81-2.75 4.1-5.16 6.9-7.22 2.79-2.06 5.61-3.09 8.44-3.09h13.66v9.93H1221q-7.215 0-10.89 5.61c-2.45 3.74-3.67 8.7-3.67 14.89v31.71h-11.09v-51.69h-5.28v-9.8h6.96Zm49.89-.65c3.35 0 6.21-.69 8.57-2.06s3.84-3.69 4.45-6.96l1.93-11.34h8.38l-3.48 21.01h21.79v9.15h-19.59v43.96h22.17v9.67h-18.69q-2.97 0-5.61-.9c-1.76-.6-3.31-1.48-4.64-2.64s-2.39-2.64-3.16-4.45-1.16-4-1.16-6.57v-39.06h-11.73v-9.8h.77Zm53.75.65h11.6l17.27 59.17 20.24-59.17h10.96l-30.04 88.69h-11.09l9.15-27.2h-9.41l-18.69-61.49ZM833.63 627.11l30.29-81.21h17.79l30.55 81.21h-12.38l-9.02-24.49h-36.1l-9.15 24.49h-11.99Zm53.75-33.77-14.57-39.19-14.57 39.19h29.13Zm35.33 60.97v-88.56h10.7v14.18c1.03-2.58 2.43-4.83 4.19-6.77 1.76-1.93 3.72-3.54 5.87-4.83s4.42-2.26 6.83-2.9 4.77-.97 7.09-.97c4.38 0 8.38.82 11.99 2.45s6.66 3.87 9.15 6.7c2.49 2.84 4.42 6.21 5.8 10.12 1.37 3.91 2.06 8.14 2.06 12.7s-.75 8.79-2.26 12.7c-1.5 3.91-3.59 7.31-6.25 10.18-2.67 2.88-5.85 5.14-9.54 6.77-3.7 1.63-7.74 2.45-12.12 2.45-2.32 0-4.62-.39-6.9-1.16a26.7 26.7 0 0 1-6.38-3.16 27.3 27.3 0 0 1-5.29-4.64 28 28 0 0 1-3.87-5.61v40.35h-11.09Zm31.71-35.57c3.09 0 5.93-.6 8.51-1.81q3.87-1.8 6.57-4.83c1.8-2.02 3.2-4.38 4.19-7.09s1.48-5.56 1.48-8.57-.5-5.97-1.48-8.64c-.99-2.66-2.39-5-4.19-7.02q-2.715-3.03-6.51-4.77c-2.54-1.16-5.35-1.74-8.44-1.74s-6.06.6-8.64 1.8-4.77 2.82-6.57 4.83c-1.81 2.02-3.2 4.36-4.19 7.03-.99 2.66-1.48 5.5-1.48 8.51s.49 5.86 1.48 8.57 2.39 5.07 4.19 7.09q2.7 3.03 6.51 4.83c2.53 1.21 5.39 1.81 8.57 1.81m47.05 35.57v-88.56h10.7v14.18c1.03-2.58 2.43-4.83 4.19-6.77 1.76-1.93 3.72-3.54 5.87-4.83s4.42-2.26 6.83-2.9 4.77-.97 7.09-.97c4.38 0 8.38.82 11.99 2.45s6.66 3.87 9.15 6.7c2.49 2.84 4.42 6.21 5.8 10.12 1.37 3.91 2.06 8.14 2.06 12.7s-.75 8.79-2.26 12.7c-1.5 3.91-3.59 7.31-6.25 10.18-2.67 2.88-5.85 5.14-9.54 6.77-3.7 1.63-7.74 2.45-12.12 2.45-2.32 0-4.62-.39-6.9-1.16a26.7 26.7 0 0 1-6.38-3.16 27.3 27.3 0 0 1-5.29-4.64 28 28 0 0 1-3.87-5.61v40.35h-11.09Zm31.71-35.57c3.09 0 5.93-.6 8.51-1.81q3.87-1.8 6.57-4.83c1.8-2.02 3.2-4.38 4.19-7.09s1.48-5.56 1.48-8.57-.5-5.97-1.48-8.64c-.99-2.66-2.39-5-4.19-7.02q-2.715-3.03-6.51-4.77c-2.54-1.16-5.35-1.74-8.44-1.74s-6.06.6-8.64 1.8-4.77 2.82-6.57 4.83c-1.81 2.02-3.2 4.36-4.19 7.03-.99 2.66-1.48 5.5-1.48 8.51s.49 5.86 1.48 8.57 2.39 5.07 4.19 7.09q2.7 3.03 6.51 4.83c2.53 1.21 5.39 1.81 8.57 1.81" style="fill:#fff"/>
  <path d="M559.26 648.13V524.09c0-6.55 1.47-13.05 4.24-18.8a44.4 44.4 0 0 1 14.07-17.17l74.15-53.89c7.68-5.59 16.73-8.55 26.16-8.55s18.48 2.95 26.16 8.54l40.18 29.23 33.98 24.67c1.58 1.14 3.14 2.44 4.54 3.79 8.05 7.65 13.03 18.32 13.71 29.31v.17c.06 1.01.11 1.82.11 2.68v78.17c0 24.53-19.96 44.49-44.49 44.49H620.74l-26.79-34.75h158.11c5.37 0 9.74-4.37 9.74-9.74v-78.17c0-3.1-1.48-6.04-3.96-7.87l-74.24-53.92c-1.78-1.24-3.72-1.85-5.7-1.85s-3.97.62-5.65 1.78l-2.4 1.66v.14l-71.88 52.19c-2.52 1.86-4.02 4.8-4.02 7.87v124.04h-34.69Z" style="fill:#f84235"/>
</svg>
