<svg xmlns="http://www.w3.org/2000/svg" viewBox="0 0 201.9 29.8">
  <defs>
    <linearGradient id="a" x1="-4.2" y1="11.9" x2="16.6" y2="9.8" gradientUnits="userSpaceOnUse">
      <stop offset=".4" stop-color="#e81a47"/>
      <stop offset=".5" stop-color="#e51946"/>
      <stop offset=".6" stop-color="#dc1743"/>
      <stop offset=".6" stop-color="#cd143e"/>
      <stop offset=".7" stop-color="#b80f37"/>
      <stop offset=".8" stop-color="#9d0a2e"/>
      <stop offset=".8" stop-color="#7f0424"/>
    </linearGradient>
  </defs>
  <path d="M30.3 24.6V7.9c0-.5.2-1 .6-1.4s.8-.6 1.4-.6h7.1c2 0 3.5.4 4.5 1.3q1.5 1.35 1.5 3.9c0 2.55-.3 2.1-.8 2.9-.4.7-1.1 1.2-2.1 1.6.8.3 1.4.7 1.7 1.3.3.5.5 1.5.6 2.8v2.2c.1.2.1.5.1.7v.7c.1.6.3 1.1.6 1.2h-4.2c-.2-.4-.3-.7-.3-1.1 0-.6-.1-1-.1-1.2v-2c-.1-1.1-.3-1.9-.7-2.3q-.6-.6-2.1-.6h-4v7.2h-3.8Zm3.8-10.5h4.5c1 0 1.7-.2 2.2-.6s.7-1 .7-1.8-.2-1.4-.7-1.8c-.4-.4-1.1-.6-1.9-.6h-4.7v4.9Zm23.3 6h2.7c-.4 1.5-1.2 2.7-2.3 3.5q-1.65 1.2-4.2 1.2c-2.55 0-3.7-.7-4.8-2-1.2-1.3-1.7-3.1-1.7-5.6s.6-4.1 1.7-5.4c1.2-1.3 2.8-2 4.8-2s3.8.6 5 1.9 1.7 3.2 1.7 5.6v1H51c0 1.1.3 1.9.8 2.5q.75.9 2.1.9c1.35 0 1.1-.1 1.6-.4.1 0 .2 0 .3-.2l.3-.3c0-.1.2-.3.4-.4.2-.2.6-.3 1-.3ZM51 15.9h5.5c0-1-.3-1.7-.8-2.2s-1.1-.8-2-.8-1.4.3-1.9.8-.8 1.2-.8 2.2M71.2 24c-.8.4-1.6.6-2.4.7-.8 0-1.6.1-2.2.1-1.3 0-2.4-.4-3.4-1.1s-1.5-1.9-1.5-3.5.4-2.6 1.3-3.2 2-1.1 3.4-1.3h.6c.3 0 .5 0 .9-.1 1.6-.2 2.4-.7 2.4-1.4s-.3-.9-.8-1.1c-.6-.2-1.1-.2-1.5-.2s-1 0-1.3.2c-.4.1-.7.4-.9.8h-3.6c.1-1.1.6-2 1.5-2.8q1.5-1.2 4.2-1.2c2.7 0 3.5.3 4.5 1s1.6 1.7 1.6 3v4.9c0 1.4-.3 2.6-.8 3.4s-1.1 1.4-1.9 1.8Zm-.9-6.7c-.5.3-1.2.5-2.1.7l-1.2.3c-.6.2-1.1.4-1.4.7-.3.4-.4.8-.4 1.2s.2 1 .5 1.3.8.4 1.4.4q1.5 0 2.4-.9t.9-2.4v-1.3ZM75.6 6h1.9c.5 0 .9.2 1.3.5s.5.8.5 1.3v16.8h-3.8V6Zm15.5 14.1h2.7c-.4 1.5-1.2 2.7-2.3 3.5q-1.65 1.2-4.2 1.2c-2.55 0-3.7-.7-4.8-2-1.2-1.3-1.7-3.1-1.7-5.6s.6-4.1 1.7-5.4c1.2-1.3 2.8-2 4.8-2s3.8.6 5 1.9 1.7 3.2 1.7 5.6v1h-9.3c0 1.1.3 1.9.8 2.5q.75.9 2.1.9c1.35 0 1.1-.1 1.6-.4.1 0 .2 0 .3-.2l.3-.3c0-.1.2-.3.4-.4.2-.2.6-.3 1-.3Zm-6.5-4.2h5.5c0-1-.3-1.7-.8-2.2s-1.1-.8-2-.8-1.4.3-1.9.8-.8 1.2-.8 2.2m10.8 3.9h3.7c0 .7.3 1.3.8 1.6.5.4 1.3.5 2.2.5s1.2-.1 1.7-.4c.4-.3.6-.6.6-1 0-.6-.8-1.1-2.3-1.5q-.9-.15-1.5-.3c-1.9-.5-3.2-1-3.8-1.7-.7-.6-1.1-1.5-1.1-2.6s.5-2.5 1.6-3.4q1.65-1.2 4.2-1.2c2.55 0 3.4.4 4.5 1.2 1 .9 1.6 2.1 1.7 3.5h-2.3c-.7 0-1.2-.3-1.6-.9l-.4-.4c-.4-.3-1-.5-1.8-.5s-1.3.1-1.6.3-.5.5-.5 1 .9 1.1 2.8 1.5c.2 0 .4.1.6.2h.5c1.8.5 3.1 1 3.8 1.6s1 1.5 1 2.6c0 1.6-.6 2.8-1.7 3.7-1.1.8-2.7 1.2-4.9 1.2s-3.6-.4-4.6-1.2-1.6-2-1.6-3.6zm20.8 4.8h-3.9c-1.4-.1-2.1-1-2.1-2.6V6h1.9c.5 0 .9.2 1.2.5.4.4.5.8.5 1.3v2.4h2.2v.8c0 .5-.2 1-.5 1.3-.4.3-.8.5-1.3.5h-.4v8c0 .6.4.9 1.1.9h1.1v2.8Zm10.5-.6c-.8.4-1.6.6-2.4.7-.8 0-1.6.1-2.2.1-1.3 0-2.4-.4-3.4-1.1s-1.5-1.9-1.5-3.5.4-2.6 1.3-3.2 2-1.1 3.4-1.3h.6c.3 0 .5 0 .9-.1 1.6-.2 2.4-.7 2.4-1.4s-.3-.9-.8-1.1c-.6-.2-1.1-.2-1.5-.2s-1 0-1.3.2c-.4.1-.7.4-.9.8h-3.6c.1-1.1.6-2 1.5-2.8q1.5-1.2 4.2-1.2c2.7 0 3.5.3 4.5 1s1.6 1.7 1.6 3v4.9c0 1.4-.3 2.6-.8 3.4s-1.1 1.4-1.9 1.8Zm-.8-6.7c-.5.3-1.2.5-2.1.7l-1.2.3c-.6.2-1.1.4-1.4.7-.3.4-.4.8-.4 1.2s.2 1 .5 1.3.8.4 1.4.4q1.5 0 2.4-.9c.9-.9.9-1.4.9-2.4v-1.3Zm11.5 7.3h-3.9c-1.4-.1-2.1-1-2.1-2.6V6h1.9c.5 0 .9.2 1.2.5.4.4.5.8.5 1.3v2.4h2.2v.8c0 .5-.2 1-.5 1.3-.4.3-.8.5-1.3.5h-.4v8c0 .6.4.9 1.1.9h1.1v2.8Zm11.3-4.5h2.7c-.4 1.5-1.2 2.7-2.3 3.5q-1.65 1.2-4.2 1.2c-2.55 0-3.7-.7-4.8-2-1.2-1.3-1.7-3.1-1.7-5.6s.6-4.1 1.7-5.4c1.2-1.3 2.8-2 4.8-2s3.8.6 5 1.9 1.7 3.2 1.7 5.6v1h-9.3c0 1.1.3 1.9.8 2.5q.75.9 2.1.9c1.35 0 1.1-.1 1.6-.4.1 0 .2 0 .3-.2l.3-.3c0-.1.2-.3.4-.4.2-.2.6-.3 1-.3Zm-6.4-4.2h5.5c0-1-.3-1.7-.8-2.2s-1.1-.8-2-.8-1.4.3-1.9.8-.8 1.2-.8 2.2m19-9.9h3l6.7 18.6h-4l-1.2-3.8h-7.2l-1.2 3.8h-4l6.2-17.3q.45-1.2 1.8-1.2Zm.9 3.7-2.6 7.9h5.2zM176.7 28c0 .5-.2.9-.5 1.3-.4.4-.8.5-1.3.5h-1.8V16.4c0-2.5.7-4.2 2.2-5.2 1.5-.9 3.1-1.4 4.8-1.4s1.8.2 2.7.5 1.6.8 2.2 1.5c1.1 1.4 1.6 3.2 1.6 5.4s-.5 4.1-1.6 5.5q-1.65 2.1-4.2 2.1c-2.55 0-1.7-.2-2.4-.5-.7-.4-1.3-.9-1.7-1.7v5.3Zm6.2-10.6c0-1.4-.3-2.5-.8-3.2-.5-.8-1.3-1.1-2.3-1.1s-1.7.4-2.3 1.1c-.5.7-.8 1.8-.8 3.2s.3 2.4.8 3.1c.5.8 1.3 1.1 2.3 1.1s1.7-.4 2.2-1.1c.5-.8.8-1.8.8-3.1ZM192 28c0 .5-.2.9-.5 1.3-.4.4-.8.5-1.3.5h-1.8V16.4c0-2.5.7-4.2 2.2-5.2 1.5-.9 3.1-1.4 4.8-1.4s1.8.2 2.7.5 1.6.8 2.2 1.5c1.1 1.4 1.6 3.2 1.6 5.4s-.5 4.1-1.6 5.5q-1.65 2.1-4.2 2.1c-2.55 0-1.7-.2-2.4-.5-.7-.4-1.3-.9-1.7-1.7v5.3Zm6.2-10.6c0-1.4-.3-2.5-.8-3.2-.5-.8-1.3-1.1-2.3-1.1s-1.7.4-2.3 1.1c-.5.7-.8 1.8-.8 3.2s.3 2.4.8 3.1c.5.8 1.3 1.1 2.3 1.1s1.7-.4 2.2-1.1c.5-.8.8-1.8.8-3.1Z" style="fill:#ffffff"/>
  <path style="fill:url(#a)" d="M11.5 15.3 0 21.8V6.5L11.5 0z"/>
  <path style="fill:#e81a47" d="M11.5 21.3 23 27.8V6.5L11.5 0z"/>
</svg>
